<svg xmlns="http://www.w3.org/2000/svg" width="533" height="194" viewBox="0 0 533 194">
  <defs>
    <style>
      .cls-1 {
        fill: #5a408e;
      }

      .cls-1, .cls-2 {
        fill-rule: evenodd;
      }

      .cls-2 {
        fill: #398add;
      }
    </style>
  </defs>
  <path id="M" class="cls-1" d="M1.037,163.756h34.38L44.761,53.548,68.24,163.756H92.8L115.2,53.787l9.7,109.969h35.938L142.63,3.834H95.792L88.724,39.771q-2.757,13.777-5.151,28.271l-3.953,24.8Q73.988,55.585,64.167,3.834H18.287Z"/>
  <path id="_CAD_m" data-name="     CAD m" class="cls-2" d="M252.672,129.615a29.818,29.818,0,0,1-25.1-12.518q-9.406-12.516-9.4-34.081,0-20,9.344-32.943T251,37.136a62.252,62.252,0,0,1,19.646,3.474V2.516A71.076,71.076,0,0,0,249.078-.6q-30.187,0-49.953,23.3T179.359,81.818q0,38.574,19.586,62.232t51.092,23.659a67.945,67.945,0,0,0,20.6-3.714V126.021q-10.305,3.594-17.969,3.594h0ZM363.6,3.834H322.87L280.464,163.756h37.015l6.349-26.714h38.334l6.109,26.714h37.734ZM330.417,108.292q7.785-34.738,12.1-67.922H343q4.071,32.226,12.219,67.922h-24.8Zm93.916,55.464h35.579a79.823,79.823,0,0,0,35.877-8.026q16.232-8.025,25.276-25.995t9.044-47.2q0-38.571-18.328-58.638T458.234,3.834h-33.9V163.756ZM472.07,39.412q4.493,1.2,9.224,6.409t7.128,14.854a99.135,99.135,0,0,1,2.4,23.539q0,23.48-6.828,33.722t-23.36,11.679V37.855A57.011,57.011,0,0,1,472.07,39.412Zm-482.1,130.35v3.594H-8.9V171.18a0.565,0.565,0,0,1,.092-0.34,0.289,0.289,0,0,1,.244-0.125,0.279,0.279,0,0,1,.236.129,0.552,0.552,0,0,1,.092.328v2.184H-7.1v-2.129q0-.512.344-0.512t0.336,0.52v2.121H-5.28v-2.61q0-1.109-.793-1.109a1.017,1.017,0,0,0-.553.149,2.316,2.316,0,0,0-.51.472,0.753,0.753,0,0,0-.777-0.621,1.34,1.34,0,0,0-.984.566v-0.441H-10.03Z"/>
  <path id="bot" class="cls-2" d="M32.036,192.756h4.484l1.219-14.375L40.8,192.756h3.2l2.922-14.344,1.266,14.344H52.88L50.505,171.9H44.4l-0.922,4.688q-0.36,1.8-.672,3.687l-0.516,3.235q-0.735-4.86-2.016-11.61H34.287Zm37.008-2.383q1.976-2.9,1.977-8.148t-2.008-8.079a6.68,6.68,0,0,0-5.8-2.828,6.417,6.417,0,0,0-5.555,2.821q-1.992,2.82-1.992,7.867,0,5.469,1.984,8.367a6.551,6.551,0,0,0,5.766,2.9A6.415,6.415,0,0,0,69.044,190.373Zm-3.086-8.211q0,3.781-.711,5.078a2.224,2.224,0,0,1-2.039,1.3,2.036,2.036,0,0,1-1.883-1.3q-0.649-1.3-.648-5.172,0-6.015,2.563-6.015,2.719,0,2.719,6.109h0Zm12.75,10.594H83.1l6.266-20.86H84.3L81.427,182.99a25.6,25.6,0,0,0-.516,2.8H80.849a38.921,38.921,0,0,0-1-4.672L77.271,171.9H72.333Zm13.375,0h4.734V171.9H92.083v20.86Zm9.36,0h9.609V188.3h-4.875v-3.8h4.2v-4.328h-4.2v-3.844h4.844V171.9h-9.578v20.86Zm29.8-4.453a3.892,3.892,0,0,1-3.274-1.633,7.24,7.24,0,0,1-1.226-4.445,7.159,7.159,0,0,1,1.218-4.3,3.655,3.655,0,0,1,3.063-1.688,8.116,8.116,0,0,1,2.562.453v-4.968a9.256,9.256,0,0,0-2.812-.407,8.181,8.181,0,0,0-6.516,3.039,11.51,11.51,0,0,0-2.578,7.711,12.32,12.32,0,0,0,2.555,8.118,8.239,8.239,0,0,0,6.664,3.085,8.855,8.855,0,0,0,2.687-.484v-4.953a7.288,7.288,0,0,1-2.343.469h0Zm17.836,2.07q1.976-2.9,1.976-8.148t-2.008-8.079a6.678,6.678,0,0,0-5.8-2.828,6.417,6.417,0,0,0-5.555,2.821q-1.992,2.82-1.992,7.867,0,5.469,1.984,8.367a6.552,6.552,0,0,0,5.766,2.9A6.416,6.416,0,0,0,149.076,190.373Zm-3.086-8.211q0,3.781-.711,5.078a2.224,2.224,0,0,1-2.039,1.3,2.036,2.036,0,0,1-1.883-1.3q-0.649-1.3-.649-5.172,0-6.015,2.563-6.015,2.718,0,2.719,6.109h0Zm8.578,10.594H159.3v-9.25l-0.125-2.594,5.891,11.844h4.859V171.9h-4.734v9.782l0.172,2.25L159.349,171.9h-4.781v20.86Zm18.281-16.094h3.234v16.094h4.8V176.662h3.266V171.9h-11.3v4.766Zm14.234,16.094h9.61V188.3h-4.875v-3.8h4.2v-4.328h-4.2v-3.844h4.844V171.9h-9.579v20.86Zm13.344,0h4.735v-9.25l-0.125-2.594,5.89,11.844h4.86V171.9h-4.735v9.782l0.172,2.25L205.208,171.9h-4.781v20.86Zm18.281-16.094h3.235v16.094h4.8V176.662h3.265V171.9h-11.3v4.766Zm31.141-4.766h-5.312l-5.532,20.86h4.828l0.829-3.485h5l0.8,3.485h4.922Zm-4.328,13.625q1.016-4.53,1.578-8.859h0.063q0.531,4.2,1.593,8.859h-3.234Zm12.25,7.235h4.641a10.407,10.407,0,0,0,4.679-1.047,7.285,7.285,0,0,0,3.3-3.391,13.745,13.745,0,0,0,1.18-6.156q0-5.031-2.391-7.648t-6.984-2.618h-4.422v20.86ZM264,176.537a2.628,2.628,0,0,1,1.2.836,4.43,4.43,0,0,1,.929,1.938,12.887,12.887,0,0,1,.313,3.07,8.2,8.2,0,0,1-.891,4.4,3.813,3.813,0,0,1-3.047,1.524V176.334A7.413,7.413,0,0,1,264,176.537Zm14.9,16.219h4.391l6.265-20.86H284.49l-2.875,11.094a25.394,25.394,0,0,0-.516,2.8h-0.062a39.178,39.178,0,0,0-1-4.672l-2.579-9.219h-4.937Zm13.375,0h4.734V171.9h-4.734v20.86Zm13.3,0.547a6.733,6.733,0,0,0,4.8-1.774,5.875,5.875,0,0,0,1.89-4.476,6.225,6.225,0,0,0-1.445-4.071,14.343,14.343,0,0,0-2.852-2.726q-2.36-1.641-2.359-2.953a1.463,1.463,0,0,1,.508-1.18,2.073,2.073,0,0,1,1.383-.43,7.689,7.689,0,0,1,3.422,1.157v-4.672a9.846,9.846,0,0,0-3.969-.86,5.839,5.839,0,0,0-6.11,6.11,6.256,6.256,0,0,0,1.1,3.6,16.133,16.133,0,0,0,3.555,3.492,7.834,7.834,0,0,1,1.429,1.329,1.9,1.9,0,0,1,.414,1.171,1.719,1.719,0,0,1-.515,1.305,1.954,1.954,0,0,1-1.406.492,7.954,7.954,0,0,1-3.782-1.312v4.859a9.024,9.024,0,0,0,3.938.938h0Zm22.508-2.93q1.975-2.9,1.976-8.148t-2.008-8.079a6.678,6.678,0,0,0-5.8-2.828,6.417,6.417,0,0,0-5.555,2.821q-1.992,2.82-1.992,7.867,0,5.469,1.984,8.367a6.552,6.552,0,0,0,5.766,2.9A6.416,6.416,0,0,0,328.076,190.373Zm-3.086-8.211q0,3.781-.711,5.078a2.224,2.224,0,0,1-2.039,1.3,2.036,2.036,0,0,1-1.883-1.3q-0.65-1.3-.649-5.172,0-6.015,2.563-6.015,2.718,0,2.719,6.109h0Zm8.578,10.594H338.3v-9.5h0.078l3.828,9.5h5l-3.781-9.406a4.842,4.842,0,0,0,2.141-2.133,6.287,6.287,0,0,0,.734-2.93,5.93,5.93,0,0,0-1.937-4.672,7.677,7.677,0,0,0-5.282-1.719h-5.515v20.86Zm7.148-16.156a2.608,2.608,0,0,1,.727,2.078q0,2.14-3.141,2.2v-4.953A3.865,3.865,0,0,1,340.716,176.6Zm11.508,6.718v9.438h4.8v-9.438l5.594-11.422h-5.438q-1.734,4.439-2.531,6.938h-0.063q-0.8-2.437-2.562-6.938h-5.313Zm20.672,9.438h4.641a10.407,10.407,0,0,0,4.679-1.047,7.285,7.285,0,0,0,3.3-3.391,13.745,13.745,0,0,0,1.18-6.156q0-5.031-2.391-7.648t-6.984-2.618H372.9v20.86Zm6.226-16.219a2.628,2.628,0,0,1,1.2.836,4.43,4.43,0,0,1,.929,1.938,12.887,12.887,0,0,1,.313,3.07,8.2,8.2,0,0,1-.891,4.4,3.813,3.813,0,0,1-3.047,1.524V176.334A7.413,7.413,0,0,1,379.122,176.537Zm10.93,16.219h4.735V171.9h-4.735v20.86Zm9.36,0h4.734v-9.5h0.078l3.828,9.5h5l-3.781-9.406a4.847,4.847,0,0,0,2.141-2.133,6.287,6.287,0,0,0,.734-2.93,5.927,5.927,0,0,0-1.938-4.672,7.672,7.672,0,0,0-5.281-1.719h-5.515v20.86ZM406.56,176.6a2.611,2.611,0,0,1,.727,2.078q0,2.14-3.141,2.2v-4.953A3.865,3.865,0,0,1,406.56,176.6Zm9.164,16.156h9.609V188.3h-4.875v-3.8h4.2v-4.328h-4.2v-3.844H425.3V171.9h-9.578v20.86Zm21.953-4.453a3.889,3.889,0,0,1-3.273-1.633,7.24,7.24,0,0,1-1.227-4.445,7.153,7.153,0,0,1,1.219-4.3,3.653,3.653,0,0,1,3.062-1.688,8.121,8.121,0,0,1,2.563.453v-4.968a9.263,9.263,0,0,0-2.813-.407,8.179,8.179,0,0,0-6.515,3.039,11.5,11.5,0,0,0-2.578,7.711,12.32,12.32,0,0,0,2.554,8.118,8.24,8.24,0,0,0,6.664,3.085,8.855,8.855,0,0,0,2.688-.484v-4.953a7.289,7.289,0,0,1-2.344.469h0Zm3.844-11.641h3.234v16.094h4.8V176.662h3.266V171.9h-11.3v4.766ZM467.9,190.373q1.976-2.9,1.976-8.148t-2.008-8.079a6.678,6.678,0,0,0-5.8-2.828,6.417,6.417,0,0,0-5.555,2.821q-1.992,2.82-1.992,7.867,0,5.469,1.984,8.367a6.552,6.552,0,0,0,5.766,2.9A6.416,6.416,0,0,0,467.9,190.373Zm-3.086-8.211q0,3.781-.711,5.078a2.224,2.224,0,0,1-2.039,1.3,2.036,2.036,0,0,1-1.883-1.3q-0.648-1.3-.648-5.172,0-6.015,2.562-6.015,2.719,0,2.719,6.109h0Zm8.578,10.594h4.734v-9.5h0.078l3.829,9.5h5l-3.782-9.406a4.842,4.842,0,0,0,2.141-2.133,6.287,6.287,0,0,0,.734-2.93,5.93,5.93,0,0,0-1.937-4.672,7.674,7.674,0,0,0-5.281-1.719H473.4v20.86Zm7.148-16.156a2.608,2.608,0,0,1,.727,2.078q0,2.14-3.141,2.2v-4.953A3.865,3.865,0,0,1,480.544,176.6Zm11.508,6.718v9.438h4.8v-9.438l5.594-11.422h-5.438q-1.734,4.439-2.531,6.938h-0.062q-0.8-2.437-2.563-6.938h-5.312Z"/>
</svg>
